HIERARCHY
ROOT Hips
{
	OFFSET -0.001795 -0.223333 0.028219
	CHANNELS 6 Xposition Yposition Zposition Zrotation Yrotation Xrotation 
	JOINT LeftUpLeg
	{
		OFFSET 0.069520 -0.091406 -0.006815
		CHANNELS 3 Zrotation Yrotation Xrotation
		JOINT LeftLeg
		{
			OFFSET 0.034277 -0.375199 -0.004496
			CHANNELS 3 Zrotation Yrotation Xrotation
			JOINT LeftFoot
			{
				OFFSET -0.013596 -0.397961 -0.043693
				CHANNELS 3 Zrotation Yrotation Xrotation
				JOINT LeftToe
				{
					OFFSET 0.026358 -0.055791 0.119288
					CHANNELS 3 Zrotation Yrotation Xrotation
					End Site
					{
						OFFSET 0.000000 0.000000 0.000000
					}
				}
			}
		}
	}
	JOINT RightUpLeg
	{
		OFFSET -0.067670 -0.090522 -0.004320
		CHANNELS 3 Zrotation Yrotation Xrotation
		JOINT RightLeg
		{
			OFFSET -0.038290 -0.382569 -0.008850
			CHANNELS 3 Zrotation Yrotation Xrotation
			JOINT RightFoot
			{
				OFFSET 0.015774 -0.398415 -0.042312
				CHANNELS 3 Zrotation Yrotation Xrotation
				JOINT RightToe
				{
					OFFSET -0.025372 -0.048144 0.123348
					CHANNELS 3 Zrotation Yrotation Xrotation
					End Site
					{
						OFFSET 0.000000 0.000000 0.000000
					}
				}
			}
		}
	}
	JOINT Spine
	{
		OFFSET -0.002533 0.108963 -0.026696
		CHANNELS 3 Zrotation Yrotation Xrotation
		JOINT Spine1
		{
			OFFSET 0.005487 0.135180 0.001092
			CHANNELS 3 Zrotation Yrotation Xrotation
			JOINT Spine2
			{
				OFFSET 0.001457 0.052922 0.025425
				CHANNELS 3 Zrotation Yrotation Xrotation
				JOINT Neck
				{
					OFFSET -0.002778 0.213870 -0.042857
					CHANNELS 3 Zrotation Yrotation Xrotation
					JOINT Head
					{
						OFFSET 0.005152 0.064970 0.051349
						CHANNELS 3 Zrotation Yrotation Xrotation
						End Site
						{
							OFFSET 0.000000 0.000000 0.000000
						}
					}
				}
				JOINT LeftShoulder
				{
					OFFSET 0.078845 0.121749 -0.034090
					CHANNELS 3 Zrotation Yrotation Xrotation
					JOINT LeftArm
					{
						OFFSET 0.090977 0.030469 -0.008868
						CHANNELS 3 Zrotation Yrotation Xrotation
						JOINT LeftForeArm
						{
							OFFSET 0.259612 -0.012772 -0.027456
							CHANNELS 3 Zrotation Yrotation Xrotation
							JOINT LeftHand
							{
								OFFSET 0.249234 0.008986 -0.001171
								CHANNELS 3 Zrotation Yrotation Xrotation
								End Site
								{
									OFFSET 0.000000 0.000000 0.000000
								}
							}
						}
					}
				}
				JOINT RightShoulder
				{
					OFFSET -0.081759 0.118833 -0.038615
					CHANNELS 3 Zrotation Yrotation Xrotation
					JOINT RightArm
					{
						OFFSET -0.096012 0.032551 -0.009143
						CHANNELS 3 Zrotation Yrotation Xrotation
						JOINT RightForeArm
						{
							OFFSET -0.253742 -0.013329 -0.021401
							CHANNELS 3 Zrotation Yrotation Xrotation
							JOINT RightHand
							{
								OFFSET -0.255298 0.007772 -0.005559
								CHANNELS 3 Zrotation Yrotation Xrotation
								End Site
								{
									OFFSET 0.000000 0.000000 0.000000
								}
							}
						}
					}
				}
			}
		}
	}
}
MOTION
Frames: 17
Frame Time: 0.050000
0.037355 0.894178 -0.019079 -0.353175 -11.926250 6.241267 2.949408 -0.974390 -33.848900 -2.642460 2.344017 44.340511 6.228964 12.971290 1.544302 0.000000 0.000000 0.000000 -4.496497 2.291811 -24.401457 11.893831 -1.724601 36.383998 -13.523661 -31.843205 0.211103 0.000000 0.000000 0.000000 3.031159 -1.035236 21.568190 -5.840869 1.805193 -20.929294 -2.463174 8.632067 29.882703 14.327034 -6.541598 -26.292666 0.000000 0.000000 0.000000 -1.995275 -11.852337 4.278708 -10.374739 -15.874159 -1.424029 144.781296 -55.154770 -112.711829 0.000000 0.000000 0.000000 15.215517 -2.430838 -1.690252 15.484097 18.924394 -1.191633 -151.712667 59.745560 -126.208558 0.000000 0.000000 0.000000 
0.036295 0.895333 -0.018799 -0.784449 -12.370400 6.429940 3.857584 -0.639281 -33.959927 -3.143581 2.687643 43.986134 6.015649 12.531436 1.482001 0.000000 0.000000 0.000000 -4.156983 2.419194 -24.840570 12.154888 -1.757074 36.072534 -13.720511 -32.177741 0.691536 0.000000 0.000000 0.000000 3.534491 -1.154357 22.880579 -6.164453 1.857674 -22.141242 -1.846404 8.688608 29.666924 14.429539 -6.315463 -27.642309 0.000000 0.000000 0.000000 -5.785865 -11.915275 4.576497 -13.764154 -16.283246 -1.493483 144.108729 -54.222269 -110.039029 0.000000 0.000000 0.000000 18.060344 -1.452718 -1.399031 18.837262 21.311379 -0.908167 -150.865506 59.970698 -124.453550 0.000000 0.000000 0.000000 
0.035170 0.894796 -0.018417 -0.756915 -12.175993 6.729438 4.200187 -0.540612 -34.626831 -3.418701 2.837062 44.469041 5.599191 11.723592 1.581416 0.000000 0.000000 0.000000 -4.574633 2.392757 -25.222720 12.992419 -2.126638 36.020248 -13.764819 -32.587108 -0.590225 0.000000 0.000000 0.000000 4.019264 -1.286622 23.302629 -6.357602 1.921848 -21.535515 -1.765989 8.655969 28.739912 13.851908 -5.428235 -29.937195 0.000000 0.000000 0.000000 -11.790562 -12.927332 5.368993 -19.080221 -16.889116 -1.487583 144.887448 -54.551405 -110.808326 0.000000 0.000000 0.000000 22.281415 -0.287739 -1.002147 25.170945 21.903595 -0.503996 -154.069905 61.265709 -129.274833 0.000000 0.000000 0.000000 
0.034022 0.892792 -0.017381 -0.739047 -11.764439 6.493320 4.474476 -0.507181 -34.538164 -4.008398 3.123928 44.848102 5.767248 12.000797 0.950858 0.000000 0.000000 0.000000 -4.723551 2.375776 -25.487673 13.348892 -2.356134 37.192080 -13.667559 -32.487221 -0.923777 0.000000 0.000000 0.000000 4.254048 -1.386408 24.285567 -6.596306 1.986018 -21.699956 -1.480753 8.512915 28.521356 14.282896 -5.100016 -32.587782 0.000000 0.000000 0.000000 -16.376904 -13.821760 6.061817 -24.570147 -16.285688 -1.613353 147.240982 -56.440784 -115.711865 0.000000 0.000000 0.000000 26.048767 1.363796 -0.141807 30.602587 21.290750 -0.345594 -160.169212 65.359182 -140.729177 0.000000 0.000000 0.000000 
0.033152 0.889405 -0.015883 -0.734348 -11.677242 5.992677 4.614583 -0.468748 -34.672172 -3.922884 3.178150 46.121896 5.495449 11.391261 0.359723 0.000000 0.000000 0.000000 -4.726520 2.339907 -25.256187 13.733317 -2.541282 38.289109 -13.623219 -32.637631 -2.170626 0.000000 0.000000 0.000000 4.708785 -1.509879 24.922941 -7.017735 2.115545 -21.279378 -1.298465 8.560290 28.698662 14.019032 -4.665167 -34.053191 0.000000 0.000000 0.000000 -19.636971 -13.862858 6.255007 -28.796583 -14.790205 -1.960367 149.521018 -59.296318 -121.588872 0.000000 0.000000 0.000000 28.746622 2.322178 0.417878 34.185314 19.295629 -0.671235 -168.429367 70.547765 -155.089099 0.000000 0.000000 0.000000 
0.032393 0.886092 -0.013846 -0.844949 -11.811804 5.820155 5.183780 -0.272349 -34.578927 -4.155302 3.417451 46.791034 5.326738 10.879923 -0.955685 0.000000 0.000000 0.000000 -4.974377 2.317732 -25.348864 14.425486 -2.841041 39.804510 -13.398315 -32.353864 -3.063107 0.000000 0.000000 0.000000 4.665726 -1.495629 25.121288 -6.758224 2.041545 -21.384113 -1.073962 9.319390 28.871030 14.016919 -4.422044 -34.785126 0.000000 0.000000 0.000000 -21.218431 -13.545298 5.960243 -31.463318 -12.777789 -2.422510 152.607758 -62.888313 -129.506086 0.000000 0.000000 0.000000 29.971567 2.274253 0.617089 36.181595 16.126976 -1.512635 176.991048 74.077499 -175.516542 0.000000 0.000000 0.000000 
0.031981 0.884104 -0.011329 -0.928931 -11.739553 5.492920 5.402875 -0.219460 -34.281351 -4.319366 3.569404 47.401745 5.419805 10.979967 -1.676168 0.000000 0.000000 0.000000 -4.943848 2.297527 -25.183818 14.483402 -2.896009 40.625754 -13.403048 -32.328855 -2.974744 0.000000 0.000000 0.000000 4.978096 -1.573091 25.212764 -6.843884 2.071558 -21.360767 -1.044037 9.492986 29.006022 13.796161 -4.291936 -34.763497 0.000000 0.000000 0.000000 -22.355116 -12.317550 5.228637 -32.383673 -10.639294 -2.935165 155.165911 -66.158366 -135.936458 0.000000 0.000000 0.000000 30.921654 1.771494 0.313546 37.322152 13.624744 -2.215695 160.843520 76.670096 163.887421 0.000000 0.000000 0.000000 
0.031882 0.883934 -0.008644 -0.928389 -11.978139 5.162521 5.402800 -0.219415 -33.438355 -4.454234 3.692520 47.111244 5.321595 10.713251 -2.191535 0.000000 0.000000 0.000000 -5.282801 2.200437 -24.690402 14.904530 -3.037602 40.907049 -13.248525 -31.945386 -3.069305 0.000000 0.000000 0.000000 5.155341 -1.594191 25.214298 -6.930719 2.082064 -21.891788 -0.995721 9.760941 29.553685 13.894451 -4.311762 -34.935599 0.000000 0.000000 0.000000 -22.644408 -11.354880 4.653901 -33.191577 -8.870388 -3.426362 157.956820 -68.352308 -141.439617 0.000000 0.000000 0.000000 31.275466 0.659565 -0.423420 38.531563 11.280389 -2.948445 149.024390 76.903582 149.364560 0.000000 0.000000 0.000000 
0.032072 0.884663 -0.005943 -0.966182 -11.927721 5.153681 5.324476 -0.264677 -32.919157 -4.524319 3.657527 46.417172 5.479744 11.056375 -2.219147 0.000000 0.000000 0.000000 -5.333721 2.167692 -24.475247 14.631541 -2.925394 40.945041 -13.285160 -31.930275 -2.679401 0.000000 0.000000 0.000000 5.349899 -1.635368 24.971810 -7.078339 2.108749 -22.450296 -0.989550 9.380883 29.925483 13.734114 -4.343463 -34.765976 0.000000 0.000000 0.000000 -23.055524 -10.154607 4.103760 -33.581590 -7.597263 -3.827033 161.294035 -69.279256 -146.446244 0.000000 0.000000 0.000000 31.465416 -0.375740 -1.322240 39.293301 9.295380 -3.537170 145.413728 76.042952 144.273141 0.000000 0.000000 0.000000 
0.032250 0.885607 -0.003788 -0.888271 -11.820005 4.950235 5.213433 -0.333861 -32.136271 -4.701604 3.640481 45.433837 5.662533 11.449114 -2.314819 0.000000 0.000000 0.000000 -5.627188 2.056403 -23.899373 14.668589 -2.953957 40.551106 -13.279348 -31.896420 -2.789147 0.000000 0.000000 0.000000 5.367430 -1.635227 24.794554 -7.255298 2.156195 -22.674983 -1.163715 9.015657 30.073616 13.367742 -4.201548 -34.824753 0.000000 0.000000 0.000000 -22.988181 -9.647844 3.909600 -33.935649 -7.052589 -4.026315 163.608137 -70.332384 -150.070853 0.000000 0.000000 0.000000 31.511507 -1.263728 -2.084132 39.963733 7.964156 -3.941676 147.631011 75.349654 146.537595 0.000000 0.000000 0.000000 
0.032353 0.886178 -0.002481 -0.849888 -12.017719 4.709906 5.412188 -0.278449 -31.201779 -5.189723 3.872221 44.439901 5.822046 11.772185 -2.633204 0.000000 0.000000 0.000000 -5.607878 2.034490 -23.585544 14.747808 -2.943383 40.609550 -13.611365 -32.579829 -2.708891 0.000000 0.000000 0.000000 5.180894 -1.574896 24.806974 -7.246466 2.151229 -22.814162 -1.230755 8.545380 29.972969 13.055846 -4.198946 -34.477011 0.000000 0.000000 0.000000 -22.981616 -9.099448 3.775350 -33.482378 -6.367896 -4.189005 164.808385 -70.987337 -151.888256 0.000000 0.000000 0.000000 31.675774 -1.588585 -2.595376 39.634690 6.975555 -4.121984 149.832562 74.890948 148.635924 0.000000 0.000000 0.000000 
0.032251 0.886051 -0.002151 -0.870785 -12.525799 4.524754 5.820970 -0.117982 -30.800217 -5.459338 4.121924 44.229941 5.794228 11.745287 -2.310459 0.000000 0.000000 0.000000 -5.669351 2.028576 -23.390480 14.901925 -2.903710 40.636509 -13.820435 -32.926816 -2.397602 0.000000 0.000000 0.000000 4.982539 -1.501268 25.044736 -7.413928 2.174718 -23.322108 -1.132832 8.222986 30.028956 12.579287 -4.069524 -34.383378 0.000000 0.000000 0.000000 -22.825609 -8.768497 3.769297 -32.868483 -6.752267 -4.086163 166.344795 -72.018706 -154.296547 0.000000 0.000000 0.000000 32.027643 -1.946856 -3.162468 39.215575 6.716247 -4.087129 153.031266 73.827636 151.767923 0.000000 0.000000 0.000000 
0.031819 0.886331 -0.002500 -0.944178 -12.943306 4.085042 6.287504 0.043575 -30.229705 -5.558752 4.226437 43.836929 5.754797 11.657845 -2.366591 0.000000 0.000000 0.000000 -5.354107 2.039835 -22.945567 14.966163 -2.827992 40.249647 -14.256886 -33.730538 -2.151227 0.000000 0.000000 0.000000 4.553051 -1.376951 25.384987 -7.362461 2.156832 -23.254629 -1.098830 8.031024 29.941117 12.504532 -4.141568 -34.117684 0.000000 0.000000 0.000000 -22.244141 -9.250965 4.161710 -31.769949 -7.482862 -3.837017 164.607125 -72.200782 -152.024711 0.000000 0.000000 0.000000 32.053715 -1.787929 -3.217137 38.451850 6.967053 -3.910207 156.580520 73.186938 155.841659 0.000000 0.000000 0.000000 
0.031046 0.887249 -0.003070 -1.099907 -12.946897 3.862289 6.689183 0.155660 -30.058261 -5.673638 4.303073 43.946482 5.591797 11.340935 -1.999354 0.000000 0.000000 0.000000 -5.110898 2.010007 -22.383904 15.016066 -2.826503 39.389140 -14.625036 -34.443847 -2.088437 0.000000 0.000000 0.000000 4.328417 -1.330962 25.866829 -7.699143 2.244152 -23.289557 -0.980951 7.791242 29.738797 12.259255 -4.035414 -34.113132 0.000000 0.000000 0.000000 -21.934386 -9.553917 4.378832 -30.135127 -8.565032 -3.452504 162.637404 -71.482433 -149.139056 0.000000 0.000000 0.000000 31.583990 -2.107691 -3.471191 38.055705 7.094057 -3.807072 160.130699 72.337724 160.088955 0.000000 0.000000 0.000000 
0.030042 0.888643 -0.003727 -1.152183 -12.947179 3.792671 7.163828 0.303572 -30.247660 -5.854394 4.398169 43.955357 5.506237 11.224020 -1.307224 0.000000 0.000000 0.000000 -4.982761 1.973159 -21.892783 14.974556 -2.786169 38.419000 -14.904477 -34.910036 -1.821437 0.000000 0.000000 0.000000 3.923202 -1.234533 25.982641 -7.650162 2.227458 -23.425115 -0.971863 7.849191 29.859742 12.139213 -3.952290 -34.230558 0.000000 0.000000 0.000000 -21.656628 -9.846004 4.520531 -28.941404 -9.973641 -3.074760 160.425045 -70.158422 -145.544246 0.000000 0.000000 0.000000 31.518439 -2.247792 -3.517946 37.201494 7.337912 -3.703461 161.836871 71.341417 161.995713 0.000000 0.000000 0.000000 
0.029062 0.889826 -0.004292 -1.351479 -12.964518 3.716746 7.619455 0.446000 -30.354518 -6.010165 4.494451 44.050958 5.322187 10.868011 -0.989120 0.000000 0.000000 0.000000 -4.517228 1.987365 -21.486096 14.868183 -2.720171 37.675213 -15.233294 -35.501768 -1.694120 0.000000 0.000000 0.000000 3.712319 -1.188071 26.409394 -7.729467 2.253319 -23.226512 -0.927790 8.093519 29.573138 12.389548 -3.988131 -34.408240 0.000000 0.000000 0.000000 -21.517653 -9.937478 4.469458 -28.406670 -11.127083 -2.779257 157.863065 -68.769117 -141.296681 0.000000 0.000000 0.000000 31.274160 -2.543407 -3.579417 37.290184 7.743274 -3.614897 163.683079 70.452701 164.443809 0.000000 0.000000 0.000000 
0.028326 0.890486 -0.004926 -1.491684 -12.941522 4.012823 7.812962 0.530519 -30.942686 -6.067328 4.544252 44.301242 5.188299 10.646184 -0.470749 0.000000 0.000000 0.000000 -4.523107 1.995161 -21.543940 15.081923 -2.806351 37.410261 -15.325346 -35.618611 -1.352691 0.000000 0.000000 0.000000 3.537348 -1.151277 26.488399 -7.778355 2.261230 -23.296245 -1.083727 8.227715 29.689326 12.444998 -3.939036 -34.724175 0.000000 0.000000 0.000000 -21.778647 -9.777892 4.348813 -29.302097 -12.529119 -2.570923 155.678605 -67.325260 -137.073286 0.000000 0.000000 0.000000 31.323999 -2.605133 -3.556187 37.999692 8.105510 -3.604467 165.743018 69.447784 167.356434 0.000000 0.000000 0.000000 
